#!OML:ASF \\Waltz\H\Terrain\Patient Classification 1\Animal1\Tuesday\Animal1.ASF
:FULLY-SPECIFIED
:DEGREES
1519
root 15.4096 13.196 1.09709 -332.703 39.0619 0.65196
lowerback 40.7686 0.768144 -3.81845
upperback 0.604928 -0.305804 1.65345
thorax -19.5561 0.366838 4.05872
lowerneck -9.84832 -3.69099 -8.05639
upperneck -33.4325 -0.949203 12.9137
head -8.66056 -0.209567 6.01044
rclavicle 1.36167e-014 -2.65378e-014
rhumerus -3.75052 21.7377 -80.8181
rradius 109.505
rwrist 4.96673
rhand -13.6158 13.1297
rfingers 7.12502
rthumb 12.4995 -16.4765
lclavicle 1.36167e-014 -2.65378e-014
lhumerus -3.35979 -28.8588 93.1521
lradius 115.6
lwrist -50.4332
lhand 20.3159 58.7352
lfingers 7.12502
lthumb 44.8292 82.3017
rfemur -73.592 5.6362 8.74595
rtibia 106.282
rfoot 2.32324 -8.0074
rtoes -8.74278
lfemur -91.6244 -11.1429 -8.72743
ltibia 77.9187
lfoot -19.7819 -13.8391
ltoes -8.50156
1520
root 15.4089 13.1972 1.08666 -332.754 39.2669 0.723023
lowerback 40.9552 0.563181 -3.61432
upperback 0.725816 -0.482816 1.58765
thorax -19.4558 0.271789 3.96086
lowerneck -10.076 -3.79256 -7.76692
upperneck -33.2428 -1.12412 12.878
head -8.53636 -0.324114 5.9331
rclavicle -1.06499e-013 5.09883e-014
rhumerus -3.38673 21.8277 -80.7926
rradius 109.474
rwrist 4.78283
rhand -13.5524 13.5704
rfingers 7.12502
rthumb 12.5607 -16.0321
lclavicle -1.06499e-013 5.09883e-014
lhumerus -3.03252 -28.8607 92.7141
lradius 115.617
lwrist -50.3255
lhand 20.4047 58.8523
lfingers 7.12502
lthumb 44.9119 82.3865
rfemur -73.504 5.47916 8.7348
rtibia 106.3
rfoot 2.47232 -7.97209
rtoes -8.12757
lfemur -91.5595 -11.348 -8.77947
ltibia 77.8575
lfoot -19.7119 -13.828
ltoes -8.23323
1521
root 15.4064 13.1895 1.08114 -332.755 39.3806 0.834471
lowerback 41.0946 0.418138 -3.54627
upperback 0.8119 -0.64764 1.51978
thorax -19.3828 0.194765 3.92808
lowerneck -10.0953 -3.80889 -7.52831
upperneck -33.1375 -1.18346 12.8321
head -8.49211 -0.381353 5.86809
rclavicle -1.21259e-014 -3.47873e-015
rhumerus -3.08348 21.9432 -80.6986
rradius 109.544
rwrist 4.56489
rhand -13.3426 13.6988
rfingers 7.12502
rthumb 12.7629 -15.8911
lclavicle -1.21259e-014 -3.47873e-015
lhumerus -2.7987 -28.8369 92.343
lradius 115.635
lwrist -50.2388
lhand 20.6202 59.5208
lfingers 7.12502
lthumb 45.1124 82.9759
rfemur -73.5649 5.36132 8.68276
rtibia 106.399
rfoot 2.76483 -7.75474
rtoes -6.77849
lfemur -91.5577 -11.4868 -8.85256
ltibia 77.8398
lfoot -19.6656 -13.8769
ltoes -7.92421
1522
root 15.4009 13.1857 1.07676 -332.83 39.4329 0.876097
lowerback 41.2694 0.34934 -3.57597
upperback 0.921803 -0.755665 1.48119
thorax -19.2962 0.14976 3.95161
lowerneck -10.0002 -3.70854 -6.88798
upperneck -33.1785 -1.16847 12.4188
head -8.54843 -0.423228 5.60594
rclavicle -1.97791e-014 7.09661e-014
rhumerus -2.62203 22.1458 -80.3966
rradius 109.595
rwrist 4.15032
rhand -13.3394 13.1276
rfingers 7.12502
rthumb 12.766 -16.4621
lclavicle -1.97791e-014 7.09661e-014
lhumerus -2.5223 -28.8576 91.9562
lradius 115.655
lwrist -50.1669
lhand 20.7492 60.1742
lfingers 7.12502
lthumb 45.2324 83.5816
rfemur -73.5373 5.38916 8.655
rtibia 106.456
rfoot 3.04153 -7.45192
rtoes -4.59135
lfemur -91.4873 -11.5444 -8.8965
ltibia 77.817
lfoot -19.6633 -13.9639
ltoes -8.04568
1523
root 15.3946 13.1899 1.07048 -333.002 39.4699 0.832073
lowerback 41.4868 0.347797 -3.47911
upperback 1.01726 -0.715765 1.47021
thorax -19.2588 0.155359 3.86542
lowerneck -9.86174 -3.63378 -6.31845
upperneck -33.2072 -1.22398 11.8704
head -8.60239 -0.479571 5.30967
rclavicle 1.02374e-014 -4.1049e-014
rhumerus -2.18858 22.1616 -79.9571
rradius 109.645
rwrist 3.71191
rhand -13.298 12.5577
rfingers 7.12502
rthumb 12.8059 -17.0295
lclavicle 1.02374e-014 -4.1049e-014
lhumerus -2.35309 -29.0554 91.715
lradius 115.668
lwrist -50.2372
lhand 20.2242 59.3956
lfingers 7.12502
lthumb 44.7439 82.9953
rfemur -73.412 5.56673 8.66443
rtibia 106.437
rfoot 3.09019 -7.46259
rtoes -4.16391
lfemur -91.3255 -11.5712 -8.88759
ltibia 77.7609
lfoot -19.6503 -13.9903
ltoes -8.37665
1524
root 15.3876 13.1917 1.06273 -333.014 39.3967 0.920113
lowerback 41.6138 0.40864 -3.48661
upperback 1.09657 -0.648542 1.4425
thorax -19.2089 0.179555 3.80149
lowerneck -10.0422 -3.60399 -6.28681
upperneck -32.8674 -1.24333 11.7055
head -8.45044 -0.475444 5.22417
rclavicle -2.15681e-014 6.84813e-014
rhumerus -1.68769 22.0499 -79.4954
rradius 109.748
rwrist 3.46553
rhand -12.9064 12.5019
rfingers 7.12502
rthumb 13.1834 -17.0613
lclavicle -2.15681e-014 6.84813e-014
lhumerus -2.12876 -29.2062 91.5349
lradius 115.613
lwrist -50.4
lhand 20.3127 58.5655
lfingers 7.12502
lthumb 44.8263 82.1332
rfemur -73.4307 5.67404 8.53378
rtibia 106.478
rfoot 2.70573 -7.79149
rtoes -4.86528
lfemur -91.2485 -11.572 -8.95504
ltibia 77.6924
lfoot -19.5237 -13.8955
ltoes -8.31764
1525
root 15.3812 13.1909 1.05617 -332.871 39.2414 1.08854
lowerback 41.5421 0.472859 -3.69193
upperback 1.25254 -0.665101 1.3965
thorax -18.9783 0.180243 3.86029
lowerneck -10.4799 -3.55083 -6.4042
upperneck -32.3128 -1.16947 11.7719
head -8.17969 -0.420108 5.23277
rclavicle 2.05742e-014 1.92821e-014
rhumerus -0.681365 22.1297 -78.8942
rradius 109.697
rwrist 3.34996
rhand -12.5945 12.2854
rfingers 7.12502
rthumb 13.484 -17.2581
lclavicle 2.05742e-014 1.92821e-014
lhumerus -1.65719 -29.2011 91.234
lradius 115.498
lwrist -50.4323
lhand 20.5177 58.2424
lfingers 7.12502
lthumb 45.0171 81.7352
rfemur -73.5978 5.7664 8.32136
rtibia 106.552
rfoot 2.8662 -7.71695
rtoes -6.58785
lfemur -91.2715 -11.5096 -9.09539
ltibia 77.6366
lfoot -19.4077 -13.823
ltoes -8.07755
1526
root 15.3758 13.1867 1.0466 -332.712 39.1552 1.15152
lowerback 41.3475 0.500838 -3.78782
upperback 1.4115 -0.661132 1.39975
thorax -18.7042 0.18021 3.90632
lowerneck -10.9069 -3.48426 -6.46226
upperneck -31.7318 -1.11422 11.7105
head -7.90741 -0.371349 5.18599
rclavicle -2.98177e-014 -1.39149e-014
rhumerus 0.528589 22.258 -78.0553
rradius 109.645
rwrist 3.15436
rhand -12.4036 11.3673
rfingers 7.12502
rthumb 13.668 -18.1639
lclavicle -2.98177e-014 -1.39149e-014
lhumerus -1.27524 -29.2465 91.0736
lradius 115.378
lwrist -50.3024
lhand 19.591 57.6808
lfingers 7.12502
lthumb 44.1539 81.5061
rfemur -73.8796 5.79454 8.219
rtibia 106.615
rfoot 3.37342 -7.40278
rtoes -8.38363
lfemur -91.4136 -11.401 -9.18101
ltibia 77.5999
lfoot -19.359 -13.9167
ltoes -8.98184
1527
root 15.371 13.1828 1.03474 -332.657 39.0463 1.18296
lowerback 41.3636 0.557154 -3.84876
upperback 1.47286 -0.61336 1.41632
thorax -18.6356 0.202448 3.93164
lowerneck -11.368 -3.4109 -6.66359
upperneck -30.8908 -1.04711 11.7226
head -7.53738 -0.306717 5.18046
rclavicle 7.7526e-015 2.18663e-015
rhumerus 1.57149 22.2334 -77.1426
rradius 109.681
rwrist 2.90778
rhand -12.1096 11.0362
rfingers 7.12502
rthumb 13.9514 -18.4757
lclavicle 7.7526e-015 2.18663e-015
lhumerus -1.1515 -29.3339 91.0933
lradius 115.329
lwrist -50.1852
lhand 18.7612 57.144
lfingers 7.12502
lthumb 43.3793 81.2546
rfemur -74.1275 5.8232 8.09523
rtibia 106.669
rfoot 3.46033 -7.31036
rtoes -7.83429
lfemur -91.4697 -11.3002 -9.25302
ltibia 77.565
lfoot -19.3183 -13.9713
ltoes -9.63561
